<?xml version="1.0" standalone="no"?>
<!DOCTYPE svg PUBLIC "-//W3C//DTD SVG 20010904//EN"
 "http://www.w3.org/TR/2001/REC-SVG-20010904/DTD/svg10.dtd">
<svg version="1.0" xmlns="http://www.w3.org/2000/svg"
 width="1080.000000pt" height="2160.000000pt" viewBox="0 0 1080.000000 2160.000000"
 preserveAspectRatio="xMidYMid meet">

<g transform="translate(0.000000,2160.000000) scale(0.100000,-0.100000)"
fill="#000000" stroke="none">
<path d="M0 10800 l0 -10800 5400 0 5400 0 0 10800 0 10800 -5400 0 -5400 0 0
-10800z m5598 1778 l2 -178 -33 0 c-19 0 -55 -3 -81 -6 l-46 -7 0 -153 0 -154
383 -2 382 -3 3 -131 3 -132 31 -6 c17 -3 53 -6 81 -6 l50 0 -6 -112 c-4 -62
-7 -141 -7 -176 l0 -62 -197 2 -198 3 -3 168 -3 167 28 11 c15 6 43 8 61 4 66
-12 72 -5 72 101 l0 94 -340 0 -340 0 0 -95 0 -95 64 0 c35 0 70 -2 78 -5 10
-4 12 -42 10 -180 l-3 -175 -59 0 -60 0 0 -114 c0 -82 4 -117 13 -125 12 -9
239 -127 492 -255 l80 -41 3 -195 2 -195 43 -22 c59 -31 428 -209 514 -249
l72 -33 3 77 3 77 183 3 c154 2 183 0 188 -12 3 -9 2 -84 -3 -168 l-8 -153
-67 -3 -68 -3 0 -59 0 -60 350 0 350 0 0 -110 0 -109 73 -3 c67 -3 72 -4 71
-25 0 -13 -1 -86 -2 -163 l-2 -140 -190 0 -190 0 2 163 3 162 73 3 72 3 0 74
0 75 -305 0 -305 0 0 -75 0 -75 75 0 75 0 0 -165 0 -165 -195 0 -195 0 2 163
3 162 71 3 72 3 6 37 c3 20 6 54 6 75 l0 37 -305 0 -305 0 0 -75 0 -75 69 0
c39 0 73 -5 76 -11 4 -6 4 -80 0 -165 l-7 -154 -187 2 -186 3 0 160 0 160 75
5 75 5 3 108 3 107 344 0 345 0 0 60 0 60 -69 0 c-64 0 -69 2 -75 24 -3 14
-20 30 -43 41 -21 10 -161 78 -312 152 -150 73 -275 133 -277 133 -2 0 -4 -24
-4 -52 0 -29 -4 -58 -8 -64 -9 -13 -635 -324 -653 -324 -8 0 -159 73 -336 162
l-323 163 0 57 c0 32 -2 58 -4 58 -2 0 -91 -42 -197 -93 -107 -51 -249 -120
-316 -152 -92 -44 -123 -64 -125 -79 -3 -19 -11 -21 -70 -24 l-68 -3 0 -59 0
-60 339 0 c300 0 340 -2 345 -16 3 -9 6 -58 6 -110 l0 -94 75 0 74 0 6 -32 c3
-18 5 -91 3 -163 l-3 -130 -186 -3 -186 -2 -6 149 c-4 83 -4 157 -1 165 5 12
21 16 70 16 l64 0 0 75 0 75 -300 0 -300 0 0 -75 0 -75 74 0 c88 0 83 13 78
-187 l-4 -143 -187 0 -188 0 -7 77 c-8 95 -8 167 0 215 l6 37 72 3 71 3 3 49
c2 27 1 60 -3 73 l-5 23 -300 0 -300 0 0 -75 0 -74 73 -3 72 -3 3 -162 2 -163
-190 0 -190 0 -2 120 c-1 66 -2 139 -3 163 l0 42 70 5 70 5 3 107 3 108 347 2
347 3 3 34 c2 19 1 44 -2 57 -6 22 -11 24 -71 24 -62 0 -66 2 -76 26 -5 15 -8
90 -7 168 l3 141 185 0 185 0 3 -77 c3 -76 12 -93 37 -69 9 7 126 64 538 261
l67 32 0 197 0 196 213 108 c116 59 246 125 287 147 l75 39 6 68 c3 37 3 91 1
120 l-5 52 -61 3 -61 3 -2 40 c-1 22 0 99 3 171 l6 131 66 6 c36 4 69 10 74
15 5 5 8 47 6 93 l-3 84 -337 3 -338 2 0 -95 c0 -107 -7 -100 93 -96 l57 3 0
-98 c0 -55 3 -136 7 -181 l6 -83 -195 0 c-178 0 -196 2 -200 18 -3 9 -6 88 -7
175 l-3 157 49 1 c26 1 61 4 77 8 l28 6 -1 133 -2 132 386 0 385 0 0 149 c0
101 -4 152 -11 157 -7 4 -43 9 -80 12 l-69 5 0 179 0 178 203 -2 202 -3 3
-177z m-2468 -3404 c29 -6 30 -9 30 -59 l0 -52 -214 1 c-197 1 -215 0 -235
-18 -24 -22 -28 -81 -7 -108 20 -26 54 -36 173 -47 183 -17 233 -33 290 -93
43 -44 58 -116 39 -187 -15 -59 -36 -85 -91 -115 -37 -20 -57 -21 -286 -24
l-246 -3 -7 23 c-3 13 -6 38 -6 57 l0 34 193 -7 c207 -7 261 0 290 35 25 32
22 94 -6 123 -20 19 -41 25 -128 35 -144 15 -256 37 -284 55 -52 34 -76 81
-82 158 -4 65 -3 77 19 107 54 81 140 103 365 96 90 -3 176 -8 193 -11z m2020
-206 c0 -117 3 -277 7 -355 l6 -143 -60 0 c-53 0 -61 3 -66 21 -4 16 -10 20
-24 14 -76 -32 -103 -36 -203 -33 -125 4 -163 19 -203 80 -26 40 -27 47 -27
174 0 73 5 145 11 161 16 44 58 81 112 99 66 22 241 17 280 -9 14 -9 29 -17
32 -17 3 0 5 47 5 103 0 57 3 107 7 110 3 4 33 7 65 7 l58 0 0 -212z m750 157
l0 -55 -130 0 -130 0 0 -300 0 -300 -65 0 -65 0 0 300 0 299 -132 3 -133 3 -3
39 c-6 70 -27 66 333 66 l325 0 0 -55z m1470 -232 c0 -159 -3 -319 -7 -356
l-6 -68 -66 3 c-45 2 -66 7 -65 16 1 6 2 165 3 352 l1 340 70 0 70 0 0 -287z
m-3645 93 c92 -28 135 -98 135 -220 l0 -76 -215 0 -215 0 0 -31 c0 -20 10 -40
29 -60 l29 -29 171 0 171 0 0 -51 0 -51 -203 4 -204 3 -42 28 c-59 39 -70 73
-78 230 -5 115 -4 138 12 170 19 40 51 68 100 85 46 16 253 15 310 -2z m643
-1 c90 -27 129 -95 128 -225 l-1 -65 -207 -3 -208 -2 0 -45 c0 -64 13 -69 215
-75 l170 -5 3 -48 3 -48 -204 3 -204 3 -42 28 c-73 48 -81 72 -81 230 0 146 6
171 52 214 44 42 86 52 209 53 76 0 133 -5 167 -15z m1927 4 c51 -14 100 -51
121 -90 12 -25 15 -59 12 -179 l-3 -149 -39 -40 c-52 -53 -102 -64 -277 -60
-128 4 -138 5 -177 31 -68 45 -76 65 -80 202 -3 76 0 138 8 165 13 51 63 103
113 119 43 14 272 15 322 1z m686 -1 c101 -34 128 -87 129 -243 0 -133 -12
-180 -55 -221 -49 -46 -101 -56 -267 -52 -139 3 -146 4 -187 31 -61 40 -71 73
-71 220 0 69 3 139 6 156 8 40 56 86 108 105 51 18 288 21 337 4z m967 6 c19
-6 22 -13 22 -55 l0 -49 -154 7 c-135 5 -158 4 -180 -11 -28 -18 -35 -57 -13
-74 6 -5 55 -13 107 -16 206 -16 270 -56 270 -171 0 -53 -12 -80 -49 -113 -39
-34 -60 -37 -271 -37 l-195 0 -3 48 -3 47 175 0 c167 0 176 1 196 22 24 26 25
41 5 62 -18 17 -45 22 -160 31 -105 8 -142 20 -186 61 -29 28 -36 43 -38 78
-1 24 6 63 15 86 14 35 26 46 68 66 46 21 66 23 211 23 88 1 170 -2 183 -5z
m72 -651 c0 -11 -458 -13 -2725 -13 -2298 0 -2725 2 -2725 14 0 11 426 13
2725 13 2267 0 2725 -3 2725 -14z m-4596 -148 c-4 -8 -15 -15 -25 -15 -10 0
-19 -7 -19 -15 0 -27 48 -18 62 13 12 25 18 27 81 30 l67 3 0 -106 c0 -105 0
-106 -22 -103 -20 3 -23 10 -26 48 -4 66 -8 73 -32 60 -16 -9 -20 -21 -20 -60
0 -47 -2 -50 -25 -50 -24 0 -25 3 -25 55 0 54 0 55 -30 55 -30 0 -30 -1 -30
-55 0 -51 -2 -55 -24 -55 -24 0 -36 28 -36 85 0 13 -7 25 -15 29 -12 4 -15 -3
-15 -29 0 -85 -117 -122 -185 -59 -20 19 -25 32 -25 72 0 59 28 91 88 99 39 5
112 -19 112 -38 0 -5 9 -9 20 -9 13 0 20 7 20 18 0 29 21 42 67 42 34 0 41 -3
37 -15z m244 -7 c-2 -15 -10 -23 -23 -23 -13 0 -21 8 -23 23 -3 18 1 22 23 22
22 0 26 -4 23 -22z m692 3 c0 -24 -13 -33 -34 -25 -27 10 -20 44 9 44 18 0 25
-5 25 -19z m508 -3 c3 -13 -3 -18 -22 -18 -20 0 -26 5 -26 21 0 15 5 20 22 17
13 -2 24 -11 26 -20z m2172 -83 l0 -105 -25 0 -25 0 0 105 0 105 25 0 25 0 0
-105z m80 66 c0 -45 12 -58 30 -36 7 8 26 15 42 15 l29 0 -25 -33 -25 -33 24
-37 c31 -45 31 -47 -1 -47 -15 0 -34 10 -44 22 l-17 22 -7 -22 c-5 -16 -15
-22 -37 -22 l-29 0 0 105 0 105 30 0 c28 0 30 -2 30 -39z m165 14 c0 -22 -31
-33 -47 -17 -17 17 -1 44 24 40 15 -2 23 -10 23 -23z m-3035 2 c20 -10 25 -20
25 -49 0 -20 3 -40 8 -44 4 -4 7 -20 7 -35 0 -41 -32 -59 -107 -59 l-63 0 0
93 c0 52 3 97 7 100 11 12 97 7 123 -6z m1057 -13 c17 -24 16 -59 -2 -74 -20
-16 -19 -30 5 -60 27 -34 25 -40 -10 -40 -25 0 -33 6 -47 35 -9 19 -23 35 -30
35 -8 0 -13 -13 -13 -35 0 -31 -3 -35 -25 -35 l-25 0 0 101 0 102 67 -6 c48
-4 70 -10 80 -23z m1348 6 c0 -9 -11 -16 -27 -18 -28 -3 -28 -4 -28 -83 l0
-79 -35 0 -35 0 0 80 c0 77 -1 80 -23 80 -29 0 -37 7 -30 26 8 22 178 16 178
-6z m-2205 -14 c0 -7 9 -16 20 -19 11 -3 20 -12 20 -21 0 -9 -8 -16 -20 -16
-16 0 -20 -7 -20 -35 0 -28 4 -35 19 -35 19 0 35 -23 24 -34 -8 -8 -57 -8 -77
0 -9 3 -18 25 -22 52 -3 26 -11 53 -16 59 -7 9 -3 20 13 38 26 27 59 33 59 11z
m2930 -1 c0 -8 9 -15 20 -15 12 0 20 -7 20 -16 0 -9 -9 -18 -20 -21 -15 -4
-20 -14 -20 -39 0 -27 4 -34 20 -34 13 0 20 -7 20 -20 0 -11 -3 -20 -7 -20 -5
0 -18 -3 -30 -6 -32 -9 -63 27 -63 75 0 25 -5 41 -15 45 -12 4 -15 -5 -15 -54
0 -60 0 -60 -30 -60 l-30 0 0 70 c0 76 14 95 51 72 14 -9 22 -7 41 13 26 28
58 33 58 10z m-3550 -25 c16 -16 20 -33 20 -80 0 -57 -1 -60 -24 -60 -23 0
-25 4 -28 52 -2 41 -7 54 -20 56 -15 3 -18 -5 -18 -52 0 -55 0 -56 -29 -56
-29 0 -29 1 -33 61 -4 71 5 93 35 86 12 -3 31 -1 42 3 29 13 33 12 55 -10z
m173 -12 c9 -11 17 -31 17 -44 0 -22 -4 -24 -51 -24 -31 0 -48 -4 -44 -10 3
-5 24 -10 46 -10 32 0 39 -4 39 -19 0 -14 -9 -20 -35 -23 -55 -6 -93 14 -100
55 -10 49 2 77 38 92 38 16 65 11 90 -17z m1035 4 c6 -9 12 -42 12 -74 0 -55
-1 -58 -25 -58 -24 0 -25 3 -25 56 0 52 -1 55 -22 52 -20 -3 -23 -9 -23 -53 0
-47 -2 -50 -28 -53 l-28 -3 3 73 3 73 38 1 c20 1 40 4 43 7 9 8 37 -3 52 -21z
m583 5 c-1 -4 -1 -11 -1 -16 0 -5 -12 -11 -27 -13 -24 -3 -28 -8 -28 -33 0
-25 4 -31 27 -33 28 -3 45 -27 27 -38 -18 -10 -79 -7 -94 6 -8 7 -15 21 -15
31 0 17 -8 19 -61 19 -37 0 -58 -4 -54 -10 3 -5 22 -10 41 -10 27 0 34 -4 34
-20 0 -17 -7 -20 -49 -20 -57 0 -81 22 -81 75 0 51 24 75 75 75 40 0 46 -3 61
-31 l16 -31 26 30 c15 17 36 32 47 35 23 4 57 -6 56 -16z m1327 -13 c43 -48
18 -115 -46 -127 -34 -7 -74 12 -86 39 -9 21 -10 21 -34 -7 -52 -63 -163 -21
-148 55 10 46 33 66 81 66 41 0 74 -22 88 -60 4 -10 6 -9 6 6 2 37 52 67 96
57 11 -3 30 -16 43 -29z m-3278 -49 c0 -73 -1 -75 -25 -75 -24 0 -25 2 -25 75
0 73 1 75 25 75 24 0 25 -2 25 -75z m690 0 c0 -73 -1 -75 -25 -75 -24 0 -25 2
-25 75 0 73 1 75 25 75 24 0 25 -2 25 -75z m268 53 c3 -15 -4 -18 -32 -18 -34
0 -36 -2 -36 -35 0 -33 2 -35 35 -35 28 0 35 -4 35 -20 0 -17 -7 -20 -49 -20
-40 0 -53 4 -65 22 -20 29 -20 77 0 106 13 19 23 23 62 20 35 -2 48 -7 50 -20z
m149 0 c33 -31 32 -90 -2 -112 -25 -17 -82 -21 -101 -8 -37 25 -41 111 -6 131
30 18 84 13 109 -11z m93 -53 c0 -73 -1 -75 -25 -75 -24 0 -25 2 -25 75 0 73
1 75 25 75 24 0 25 -2 25 -75z m903 61 c29 -22 33 -76 7 -109 -18 -22 -29 -27
-65 -27 -35 0 -48 5 -64 26 -28 35 -26 69 4 99 27 28 88 34 118 11z m95 -28
l19 -43 13 43 c11 34 18 42 37 42 12 0 23 -4 23 -9 0 -21 -49 -136 -59 -139
-33 -11 -57 9 -79 67 -25 64 -23 81 8 81 13 0 25 -14 38 -42z m218 34 c18 -12
36 -52 30 -68 -4 -9 -21 -14 -51 -14 -25 0 -45 -4 -45 -10 0 -5 18 -10 39 -10
24 0 41 -5 44 -14 8 -21 -2 -26 -54 -26 -37 0 -53 5 -69 22 -45 49 -9 128 59
128 20 0 41 -4 47 -8z m222 -18 c7 -14 12 -33 13 -42 0 -9 9 2 20 26 15 35 23
43 41 40 18 -2 22 -9 20 -27 -1 -14 -8 -32 -16 -40 -7 -9 -21 -38 -31 -66 -22
-61 -32 -75 -56 -75 -22 0 -23 8 -9 45 7 20 5 38 -13 80 -20 49 -24 54 -47 48
-40 -9 -50 -23 -50 -69 0 -40 -2 -44 -25 -44 -24 0 -25 2 -25 73 l0 73 83 2
c81 2 84 1 95 -24z"/>
<path d="M5286 12665 c-3 -9 -6 -55 -6 -101 l0 -84 109 0 110 0 6 44 c4 24 3
68 -2 97 l-8 54 -101 3 c-86 2 -103 0 -108 -13z"/>
<path d="M4520 11630 l0 -100 110 0 110 0 0 100 0 100 -110 0 -110 0 0 -100z"/>
<path d="M5290 11630 l0 -100 110 0 110 0 0 100 0 100 -110 0 -110 0 0 -100z"/>
<path d="M6060 11630 l0 -100 110 0 110 0 0 100 0 100 -110 0 -110 0 0 -100z"/>
<path d="M5135 10970 l-250 -129 -3 -248 -2 -248 254 -127 c140 -71 260 -128
266 -128 6 0 124 57 261 126 189 96 250 132 254 148 3 11 4 124 3 250 l-3 228
-254 129 c-140 71 -259 129 -265 128 -6 0 -123 -58 -261 -129z m397 -170 l128
-65 0 -140 -1 -140 -130 -64 -130 -64 -130 64 -129 64 0 133 c0 72 -1 135 -2
139 -3 8 252 143 262 139 3 -1 62 -31 132 -66z"/>
<path d="M5333 10697 l-63 -31 0 -67 c0 -75 1 -77 77 -109 l52 -22 66 32 66
32 -3 67 -3 66 -60 32 c-33 18 -62 32 -65 32 -3 0 -33 -14 -67 -32z"/>
<path d="M3812 10213 l3 -88 95 0 95 0 3 88 3 87 -101 0 -101 0 3 -87z"/>
<path d="M6782 10213 l3 -88 95 0 95 0 3 88 3 87 -101 0 -101 0 3 -87z"/>
<path d="M3127 9623 c-4 -3 -7 -44 -7 -90 l0 -83 106 0 107 0 -7 53 c-3 28 -6
69 -6 90 l0 37 -93 0 c-52 0 -97 -3 -100 -7z"/>
<path d="M3820 9540 l0 -90 100 0 101 0 -3 88 -3 87 -97 3 -98 3 0 -91z"/>
<path d="M4517 9623 c-4 -3 -7 -44 -7 -90 l0 -83 105 0 105 0 0 68 c0 115 2
112 -104 112 -51 0 -96 -3 -99 -7z"/>
<path d="M6087 9624 c-4 -4 -7 -45 -7 -91 l0 -83 105 0 106 0 -3 88 -3 87 -95
3 c-53 1 -99 0 -103 -4z"/>
<path d="M6780 9540 l0 -90 100 0 100 0 0 90 0 90 -100 0 -100 0 0 -90z"/>
<path d="M7476 9593 c-3 -21 -6 -62 -6 -91 l0 -53 103 3 102 3 0 85 0 85 -96
3 -96 3 -7 -38z"/>
<path d="M4742 8880 c-20 -19 -22 -30 -22 -143 0 -165 -3 -162 138 -162 103 0
112 2 136 24 25 23 26 29 26 134 l0 109 -31 29 c-30 28 -35 29 -128 29 -84 0
-100 -3 -119 -20z"/>
<path d="M3462 8884 c-17 -12 -22 -25 -22 -60 l0 -44 140 0 140 0 0 43 c0 37
-4 45 -29 60 -39 23 -196 24 -229 1z"/>
<path d="M4097 8882 c-10 -11 -17 -36 -17 -60 l0 -42 145 0 145 0 0 29 c0 17
-11 42 -26 60 -26 31 -26 31 -128 31 -87 0 -105 -3 -119 -18z"/>
<path d="M6027 8889 c-33 -19 -44 -67 -41 -174 3 -94 5 -101 30 -123 25 -22
34 -23 136 -20 141 4 138 1 138 162 0 67 -4 126 -8 132 -16 25 -55 34 -144 34
-51 0 -101 -5 -111 -11z"/>
<path d="M6693 8881 c-17 -16 -21 -36 -26 -137 -7 -137 1 -159 58 -170 60 -11
203 -1 219 16 12 12 16 45 18 143 3 125 2 129 -21 148 -19 16 -39 19 -125 19
-87 0 -105 -3 -123 -19z"/>
<path d="M3495 8169 c-8 -12 -5 -16 15 -21 15 -3 20 2 20 22 0 13 -27 13 -35
-1z"/>
<path d="M3152 8148 c-20 -20 -15 -86 7 -98 46 -24 81 -2 81 53 0 44 -59 74
-88 45z"/>
<path d="M4170 8140 c0 -21 8 -24 34 -14 25 10 19 34 -9 34 -18 0 -25 -5 -25
-20z"/>
<path d="M4170 8065 c0 -20 5 -25 25 -25 29 0 45 28 24 41 -27 17 -49 10 -49
-16z"/>
<path d="M5210 8134 c0 -21 4 -25 23 -22 14 2 23 11 25 26 3 18 -1 22 -22 22
-21 0 -26 -5 -26 -26z"/>
<path d="M3935 8110 c-3 -5 3 -10 15 -10 12 0 18 5 15 10 -3 6 -10 10 -15 10
-5 0 -12 -4 -15 -10z"/>
<path d="M5400 8110 c-12 -8 -10 -10 8 -10 13 0 20 4 17 10 -7 12 -6 12 -25 0z"/>
<path d="M6690 8075 c0 -28 4 -35 19 -35 10 0 22 7 25 16 10 26 -3 54 -25 54
-15 0 -19 -7 -19 -35z"/>
<path d="M6864 8096 c-10 -26 0 -51 21 -51 16 0 20 7 20 30 0 33 -30 49 -41
21z"/>
<path d="M4695 8091 c-8 -26 4 -51 26 -51 15 0 19 7 19 35 0 28 -4 35 -19 35
-11 0 -22 -8 -26 -19z"/>
<path d="M5698 8093 c-7 -30 3 -53 23 -53 15 0 19 7 19 35 0 28 -4 35 -19 35
-10 0 -21 -8 -23 -17z"/>
<path d="M6025 8110 c-3 -5 3 -10 15 -10 12 0 18 5 15 10 -3 6 -10 10 -15 10
-5 0 -12 -4 -15 -10z"/>
</g>
</svg>
