<?xml version="1.0" encoding="UTF-8"?>
<svg xmlns="http://www.w3.org/2000/svg" viewBox="0 0 800 680">

  <!-- TŁO: gradient zielono‑czarny -->
  <defs>
    <linearGradient id="krunixbase-bg" x1="0" y1="0" x2="0" y2="1">
      <stop offset="0%" stop-color="#00ff88"/>
      <stop offset="100%" stop-color="#001a0f"/>
    </linearGradient>
  </defs>
  <rect width="800" height="680" fill="url(#krunixbase-bg)"/>

  <!-- HEXAGON OUTLINE (zielony / jasno‑zielony) -->
  <polygon
    points="400,80 580,180 580,380 400,480 220,380 220,180"
    fill="none"
    stroke="#00ff88"
    stroke-width="18"
    stroke-linejoin="round"
  />

  <!-- SYMBOL SEEDTOOLS (biały) -->
  <g fill="none" stroke="#ffffff" stroke-width="10" stroke-linecap="square" stroke-linejoin="miter">
    <polygon points="400,210 458,244 458,308 400,342 342,308 342,244" />
    <polygon points="400,250 422,262 422,290 400,302 378,290 378,262" />

    <line x1="400" y1="210" x2="400" y2="170" />
    <rect x="386" y="142" width="28" height="28" />
    <line x1="400" y1="142" x2="400" y2="118" />
    <line x1="320" y1="118" x2="480" y2="118" />
    <line x1="400" y1="118" x2="400" y2="90" />
    <rect x="386" y="62" width="28" height="28" />
    <line x1="320" y1="118" x2="320" y2="146" />
    <rect x="306" y="146" width="28" height="28" />
    <line x1="480" y1="118" x2="480" y2="146" />
    <rect x="466" y="146" width="28" height="28" />

    <line x1="342" y1="308" x2="260" y2="354" />
    <rect x="232" y="348" width="28" height="28" />
    <line x1="246" y1="376" x2="246" y2="410" />
    <line x1="166" y1="410" x2="326" y2="410" />
    <line x1="166" y1="410" x2="166" y2="438" />
    <rect x="152" y="438" width="28" height="28" />
    <line x1="246" y1="410" x2="246" y2="438" />
    <rect x="232" y="438" width="28" height="28" />
    <line x1="326" y1="410" x2="326" y2="438" />
    <rect x="312" y="438" width="28" height="28" />

    <line x1="458" y1="308" x2="540" y2="354" />
    <rect x="540" y="348" width="28" height="28" />
    <line x1="554" y1="376" x2="554" y2="410" />
    <line x1="474" y1="410" x2="634" y2="410" />
    <line x1="474" y1="410" x2="474" y2="438" />
    <rect x="460" y="438" width="28" height="28" />
    <line x1="554" y1="410" x2="554" y2="438" />
    <rect x="540" y="438" width="28" height="28" />
    <line x1="634" y1="410" x2="634" y2="438" />
    <rect x="620" y="438" width="28" height="28" />
  </g>

</svg>
